<svg xmlns="http://www.w3.org/2000/svg" width="1600" height="680" viewBox="0 0 1600 680" role="img" aria-label="Abstract digital healthcare background">
  <defs>
    <linearGradient id="bg" x1="0" y1="0" x2="1" y2="1">
      <stop offset="0" stop-color="#0B3D2E" stop-opacity="0.85"/>
      <stop offset="1" stop-color="#2F6E62" stop-opacity="0.85"/>
    </linearGradient>
    <linearGradient id="glow" x1="0" y1="0" x2="1" y2="1">
      <stop offset="0" stop-color="#FFFFFF" stop-opacity="0.25"/>
      <stop offset="1" stop-color="#FFFFFF" stop-opacity="0"/>
    </linearGradient>
  </defs>
  <rect width="1600" height="680" fill="url(#bg)"/>
  <!-- soft pattern -->
  <g opacity="0.15" stroke="#FFFFFF" stroke-width="1.5" fill="none">
    <path d="M0 520 C 200 480, 300 580, 520 540 S 820 500, 980 560 S 1320 620, 1600 520"/>
    <path d="M0 440 C 220 380, 340 480, 560 460 S 880 420, 1060 470 S 1380 520, 1600 440"/>
    <path d="M0 360 C 240 300, 380 380, 600 380 S 940 360, 1140 390 S 1440 440, 1600 360"/>
  </g>
  <!-- subtle cross/plus motif for healthcare -->
  <g opacity="0.35" stroke="#FFFFFF" stroke-width="10" stroke-linecap="round">
    <path d="M1400 160 v80 M1360 200 h80"/>
    <path d="M240 180 v60 M210 210 h60" opacity="0.7"/>
  </g>
  <!-- vignette -->
  <rect width="1600" height="680" fill="url(#glow)"/>
</svg>